{"title":"Made.in.USA.1966.CRITERION.DVDRip.XviD-KARiNA","uid":5030268,"size":1478397227,"categoryP":"video","categoryS":"movies","magnet":"?xt=urn:btih:0a4d0657b616556695c40c47889ccb0ea6888cc9&amp;dn=Made.in.USA.1966.CRITERION.DVDRip.XviD-KARiNA&amp;tr=udp%3A%2F%2Ftracker.openbittorrent.com%3A80&amp;tr=udp%3A%2F%2Fopen.demonii.com%3A1337&amp;tr=udp%3A%2F%2Ftracker.coppersurfer.tk%3A6969&amp;tr=udp%3A%2F%2Fexodus.desync.com%3A6969","seeders":4,"leechers":1,"uploader":"SerA0","files":-1,"time":1248882740,"description":"88      a8P          db         88888888ba   88  888b      88         db         \n88    ,88'          d88b        88      &quot;8b  &quot;&quot;  8888b     88        d88b        \n88  ,88&quot;           d8'`8b       88      ,8P      88 `8b    88       d8'`8b       \n88,d88'           d8'  `8b      88aaaaaa8P'  88  88  `8b   88      d8'  `8b      \n8888&quot;88,         d8YaaaaY8b     88&quot;&quot;&quot;&quot;88'    88  88   `8b  88     d8YaaaaY8b     \n88P   Y8b       d8&quot;&quot;&quot;&quot;&quot;&quot;&quot;&quot;8b    88    `8b    88  88    `8b 88    d8&quot;&quot;&quot;&quot;&quot;&quot;&quot;&quot;8b    \n88     &quot;88,    d8'        `8b   88     `8b   88  88     `8888   d8'        `8b   \n88       Y8b  d8'          `8b  88      `8b  88  88      `888  d8'          `8b  \n-------------------------------------------------------------------------------\n                    -------------------------------------\n            [ Made.in.USA.1966.CRITERION.DVDRip.XviD-KARiNA.avi ]            \n                    -------------------------------------\n\n[Synopsis]==================================                                                                \n\n          Made in USA | France | 1966 | Directed by Jean-Luc Godard\n                                  \nWith its giddily complex noir plot and color-drenched widescreen images, Made in \nU.S.A was a final burst of exuberance from Jean-Luc Godard's early sixties barrage \nof delirious movie-movies. Yet this chaotic crime thriller and acidly funny critique of consumerism, starring Anna Karina as the most brightly dressed private investigator in film history, searching for a former lover who might have been assassinated, also points toward the more political cinema that would come to define Godard. Featuring characters with names such as Richard Nixon, Robert McNamara, David Goodis, and Doris Mizoguchi, and appearances by a slapstick Jean-Pierre Leaud and a sweetly singing Marianne Faithfull, this piece of pop art is like a Looney Tunes rendition of The Big Sleep gone New Wave.\n\n[ IMdB: http://www.imdb.com/title/tt0060647/ | Rating: 6.4 / 10 (636 votes) ]\n                                     \n[General]===================================                                                                 \n\nComplete name                    : Made.in.USA.1966.CRITERION.DVDRip.XviD-KARiNA.avi\nFormat                           : AVI\nFile size                        : 1.37 GiB\nDuration                         : 1h 25mn\nOverall bit rate                 : 2 312 Kbps\nSource                           : Criterion NTSC DVD9\n\n[Video]=====================================\n                                 \nFormat                           : MPEG-4 Visual\nCodec ID                         : XVID\nBit rate                         : 2 139 Kbps\nWidth                            : 720 pixels\nHeight                           : 420 pixels\nDisplay aspect ratio             : 16/9\nFrame rate                       : 23.976 fps\nResolution                       : 24 bits\nColorimetry                      : 4:2:0\nScan type                        : Progressive\nBits/(Pixel*Frame)               : 0.295\nStream size                      : 1.27 GiB (93%)\n\n[Audio]=====================================                              \n\nFormat                           : MPEG Audio\nFormat version                   : Version 1\nFormat profile                   : Layer 3\nBit rate mode                    : Constant\nBit rate                         : 160 Kbps\nChannel(s)                       : 2 channels\nSampling rate                    : 48.0 KHz\nResolution                       : 16 bits\nStream size                      : 97.4 MiB (7%)\nAlignment                        : Split accross interleaves\nInterleave, duration             : 24 ms (0.58 video frame)\nWriting library                  : LAME3.98\nLanguage                         : French\n\n[Subtitles]=================================\n\nFormat                           : SRT\nLanguage                         : English\n\n[KARiNA]===================================","torrent":{"xt":"urn:btih:0a4d0657b616556695c40c47889ccb0ea6888cc9","amp;dn":"Made.in.USA.1966.CRITERION.DVDRip.XviD-KARiNA","amp;tr":["udp%3A%2F%2Ftracker.openbittorrent.com%3A80","udp%3A%2F%2Fopen.demonii.com%3A1337","udp%3A%2F%2Ftracker.coppersurfer.tk%3A6969","udp%3A%2F%2Fexodus.desync.com%3A6969"],"infoHash":"0a4d0657b616556695c40c47889ccb0ea6888cc9","infoHashBuffer":{"type":"Buffer","data":[10,77,6,87,182,22,85,102,149,196,12,71,136,156,203,14,166,136,140,201]},"announce":[],"urlList":[]}}